<svg width="452" height="328" viewBox="0 0 452 328" fill="none" xmlns="http://www.w3.org/2000/svg">
<path d="M34.0644 110.839C32.3387 110.839 30.6837 111.524 29.4634 112.744C28.2432 113.965 27.5577 115.62 27.5577 117.345C27.5577 119.071 28.2432 120.726 29.4634 121.946C30.6837 123.167 32.3387 123.852 34.0644 123.852H115.854V121.014C115.853 118.996 116.354 117.011 117.311 115.235C118.268 113.459 119.651 111.948 121.335 110.839H34.0644Z" fill="#E6E6E6"/>
<path d="M108.489 96.1987H80.8352C79.1095 96.1987 77.4545 95.5131 76.2343 94.2929C75.014 93.0726 74.3285 91.4176 74.3285 89.6919C74.3285 87.9663 75.014 86.3113 76.2343 85.091C77.4545 83.8708 79.1095 83.1852 80.8352 83.1852H108.489C110.214 83.1852 111.869 83.8708 113.09 85.091C114.31 86.3113 114.995 87.9663 114.995 89.6919C114.995 91.4176 114.31 93.0726 113.09 94.2929C111.869 95.5131 110.214 96.1987 108.489 96.1987Z" fill="#E6E6E6"/>
<path d="M115.037 241.7H13.8267C10.1609 241.696 6.64645 240.238 4.05433 237.646C1.4622 235.054 0.00412462 231.539 0 227.874V67.7763C0.00412677 64.1105 1.46221 60.596 4.05433 58.0039C6.64645 55.4117 10.1609 53.9537 13.8267 53.9495H175.497C179.163 53.9537 182.677 55.4117 185.269 58.0039C187.862 60.596 189.32 64.1105 189.324 67.7763V107.457H187.697V67.7763C187.693 64.5418 186.407 61.4407 184.12 59.1536C181.832 56.8664 178.731 55.5799 175.497 55.5762H13.8268C10.5922 55.5799 7.49121 56.8664 5.20404 59.1536C2.91688 61.4407 1.63036 64.5418 1.6267 67.7763V227.874C1.63036 231.108 2.91688 234.209 5.20404 236.496C7.49121 238.784 10.5922 240.07 13.8268 240.074H115.037V241.7Z" fill="#CCCCCC"/>
<path d="M330.119 110.839C331.804 111.948 333.187 113.459 334.144 115.235C335.101 117.011 335.601 118.996 335.601 121.014V123.852H417.39C419.116 123.852 420.771 123.167 421.991 121.946C423.212 120.726 423.897 119.071 423.897 117.345C423.897 115.62 423.212 113.965 421.991 112.744C420.771 111.524 419.116 110.839 417.39 110.839H330.119Z" fill="#E6E6E6"/>
<path d="M336.459 89.6919C336.461 87.9669 337.147 86.313 338.367 85.0932C339.587 83.8734 341.241 83.1872 342.966 83.1852H370.619C372.345 83.1852 374 83.8708 375.22 85.091C376.441 86.3113 377.126 87.9663 377.126 89.6919C377.126 91.4176 376.441 93.0726 375.22 94.2929C374 95.5131 372.345 96.1987 370.619 96.1987H342.966C341.241 96.1967 339.587 95.5105 338.367 94.2907C337.147 93.0709 336.461 91.417 336.459 89.6919Z" fill="#E6E6E6"/>
<path d="M336.418 241.7H437.628C441.294 241.696 444.808 240.238 447.4 237.646C449.992 235.054 451.451 231.539 451.455 227.874V67.7763C451.451 64.1105 449.992 60.596 447.4 58.0039C444.808 55.4117 441.294 53.9537 437.628 53.9495H275.958C272.292 53.9537 268.777 55.4117 266.185 58.0039C263.593 60.596 262.135 64.1105 262.131 67.7763V107.457H263.758V67.7763C263.761 64.5418 265.048 61.4407 267.335 59.1536C269.622 56.8664 272.723 55.5799 275.958 55.5762H437.628C440.862 55.5799 443.963 56.8664 446.251 59.1536C448.538 61.4407 449.824 64.5418 449.828 67.7763V227.874C449.824 231.108 448.538 234.209 446.251 236.496C443.963 238.784 440.862 240.07 437.628 240.074H336.418V241.7Z" fill="#CCCCCC"/>
<path d="M323.059 107.187H128.054C124.389 107.194 120.876 108.653 118.285 111.245C115.693 113.836 114.234 117.349 114.227 121.014V314.173C114.231 317.839 115.689 321.354 118.281 323.946C120.873 326.538 124.388 327.996 128.054 328H323.059C326.725 327.996 330.24 326.538 332.832 323.946C335.424 321.354 336.882 317.839 336.886 314.173V121.014C336.882 117.348 335.424 113.833 332.832 111.241C330.24 108.649 326.725 107.191 323.059 107.187ZM335.26 314.173C335.256 317.408 333.969 320.509 331.682 322.796C329.395 325.083 326.294 326.369 323.059 326.373H128.054C124.819 326.369 121.718 325.083 119.431 322.796C117.144 320.509 115.858 317.408 115.854 314.173V121.014C115.859 117.779 117.146 114.679 119.432 112.392C121.719 110.105 124.82 108.819 128.054 108.814H323.059C326.294 108.817 329.395 110.104 331.682 112.391C333.969 114.678 335.256 117.779 335.26 121.014V314.173Z" fill="#22A6AF"/>
<path d="M307.703 182.412H143.409C141.683 182.412 140.028 181.727 138.808 180.507C137.588 179.286 136.902 177.631 136.902 175.906C136.902 174.18 137.588 172.525 138.808 171.305C140.028 170.085 141.683 169.399 143.409 169.399H307.703C309.429 169.399 311.084 170.085 312.304 171.305C313.524 172.525 314.21 174.18 314.21 175.906C314.21 177.631 313.524 179.286 312.304 180.507C311.084 181.727 309.429 182.412 307.703 182.412Z" fill="#CCCCCC"/>
<path d="M260.936 154.759H190.176C188.45 154.759 186.795 154.073 185.575 152.853C184.354 151.633 183.669 149.978 183.669 148.252C183.669 146.527 184.354 144.872 185.575 143.651C186.795 142.431 188.45 141.746 190.176 141.746H260.936C262.662 141.746 264.317 142.431 265.537 143.651C266.757 144.872 267.443 146.527 267.443 148.252C267.443 149.978 266.757 151.633 265.537 152.853C264.317 154.073 262.662 154.759 260.936 154.759Z" fill="#22A6AF"/>
<path d="M213.763 221.453H143.002C141.276 221.453 139.621 220.767 138.401 219.547C137.181 218.327 136.495 216.672 136.495 214.946C136.495 213.22 137.181 211.565 138.401 210.345C139.621 209.125 141.276 208.439 143.002 208.439H213.763C215.488 208.439 217.143 209.125 218.363 210.345C219.584 211.565 220.269 213.22 220.269 214.946C220.269 216.672 219.584 218.327 218.363 219.547C217.143 220.767 215.488 221.453 213.763 221.453Z" fill="#CCCCCC"/>
<path d="M213.763 249.92H143.002C141.276 249.92 139.621 249.234 138.401 248.014C137.181 246.794 136.495 245.139 136.495 243.413C136.495 241.687 137.181 240.032 138.401 238.812C139.621 237.592 141.276 236.906 143.002 236.906H213.763C215.488 236.906 217.143 237.592 218.363 238.812C219.584 240.032 220.269 241.687 220.269 243.413C220.269 245.139 219.584 246.794 218.363 248.014C217.143 249.234 215.488 249.92 213.763 249.92Z" fill="#CCCCCC"/>
<path d="M213.763 278.386H143.002C141.276 278.386 139.621 277.701 138.401 276.481C137.181 275.26 136.495 273.605 136.495 271.88C136.495 270.154 137.181 268.499 138.401 267.279C139.621 266.058 141.276 265.373 143.002 265.373H213.763C215.488 265.373 217.143 266.058 218.363 267.279C219.584 268.499 220.269 270.154 220.269 271.88C220.269 273.605 219.584 275.26 218.363 276.481C217.143 277.701 215.488 278.386 213.763 278.386Z" fill="#CCCCCC"/>
<path d="M302.015 227.031C308.721 227.031 314.157 221.594 314.157 214.888C314.157 208.182 308.721 202.746 302.015 202.746C295.309 202.746 289.872 208.182 289.872 214.888C289.872 221.594 295.309 227.031 302.015 227.031Z" fill="#22A6AF"/>
<path d="M300.811 219.52C300.538 219.521 300.272 219.432 300.054 219.269L300.04 219.258L297.187 217.075C296.92 216.871 296.745 216.569 296.701 216.235C296.657 215.902 296.747 215.564 296.952 215.297C297.156 215.031 297.459 214.856 297.792 214.812C298.125 214.768 298.463 214.858 298.73 215.063L300.578 216.48L304.946 210.782C305.047 210.65 305.173 210.539 305.317 210.455C305.462 210.372 305.621 210.318 305.786 210.296C305.951 210.275 306.119 210.285 306.279 210.328C306.44 210.371 306.591 210.446 306.723 210.547L306.696 210.585L306.724 210.547C306.991 210.752 307.165 211.054 307.209 211.388C307.253 211.721 307.163 212.058 306.959 212.325L301.821 219.024C301.702 219.179 301.549 219.304 301.375 219.389C301.2 219.475 301.007 219.519 300.812 219.519L300.811 219.52Z" fill="white"/>
<path d="M112.507 37.7471C108.774 37.7471 105.125 36.6402 102.021 34.5663C98.9177 32.4925 96.4988 29.5449 95.0703 26.0963C93.6419 22.6476 93.2682 18.8529 93.9964 15.1919C94.7247 11.5308 96.5222 8.16798 99.1616 5.52854C101.801 2.8891 105.164 1.09161 108.825 0.363401C112.486 -0.364809 116.281 0.0089508 119.729 1.43742C123.178 2.86589 126.126 5.28492 128.199 8.3886C130.273 11.4923 131.38 15.1412 131.38 18.874C131.374 23.8777 129.384 28.6749 125.846 32.2131C122.308 35.7513 117.51 37.7415 112.507 37.7471ZM112.507 1.62745C109.096 1.62749 105.761 2.63901 102.925 4.5341C100.089 6.4292 97.8785 9.12274 96.5732 12.2741C95.2678 15.4255 94.9263 18.8932 95.5918 22.2387C96.2573 25.5842 97.8999 28.6572 100.312 31.0691C102.724 33.4811 105.797 35.1236 109.142 35.7891C112.488 36.4545 115.956 36.113 119.107 34.8076C122.258 33.5023 124.952 31.2917 126.847 28.4556C128.742 25.6194 129.753 22.285 129.753 18.874C129.748 14.3014 127.93 9.9177 124.696 6.68447C121.463 3.45124 117.079 1.63257 112.507 1.62745Z" fill="#CCCCCC"/>
<path d="M110.717 25.7632C110.311 25.7639 109.915 25.6325 109.59 25.3887L109.57 25.3736L105.326 22.1268C104.929 21.8225 104.669 21.3729 104.604 20.8769C104.538 20.381 104.672 19.8794 104.977 19.4824C105.281 19.0854 105.731 18.8255 106.226 18.76C106.722 18.6945 107.224 18.8287 107.621 19.1331L110.37 21.2412L116.867 12.766C117.017 12.5695 117.205 12.4046 117.419 12.2807C117.634 12.1568 117.87 12.0764 118.116 12.044C118.361 12.0115 118.611 12.0278 118.85 12.0918C119.089 12.1558 119.313 12.2662 119.51 12.4169L119.47 12.4733L119.512 12.4173C119.908 12.722 120.167 13.1714 120.233 13.6671C120.298 14.1628 120.164 14.6641 119.86 15.0612L112.219 25.0254C112.042 25.255 111.815 25.4408 111.555 25.5683C111.295 25.6959 111.009 25.7618 110.719 25.761L110.717 25.7632Z" fill="#CCCCCC"/>
<path d="M302.015 255.498C308.721 255.498 314.157 250.061 314.157 243.355C314.157 236.649 308.721 231.213 302.015 231.213C295.309 231.213 289.872 236.649 289.872 243.355C289.872 250.061 295.309 255.498 302.015 255.498Z" fill="#22A6AF"/>
<path d="M300.811 247.987C300.538 247.988 300.272 247.899 300.054 247.735L300.04 247.725L297.187 245.542C297.054 245.441 296.943 245.315 296.86 245.17C296.777 245.026 296.723 244.867 296.701 244.702C296.679 244.537 296.69 244.369 296.733 244.208C296.776 244.047 296.85 243.896 296.952 243.764C297.053 243.632 297.179 243.521 297.324 243.438C297.468 243.355 297.627 243.3 297.792 243.279C297.957 243.257 298.125 243.268 298.286 243.311C298.447 243.354 298.597 243.428 298.73 243.529L300.578 244.947L304.946 239.249C305.047 239.116 305.173 239.006 305.317 238.922C305.462 238.839 305.621 238.785 305.786 238.763C305.951 238.741 306.119 238.752 306.279 238.795C306.44 238.838 306.591 238.913 306.723 239.014L306.696 239.052L306.724 239.014C306.991 239.219 307.165 239.521 307.209 239.854C307.253 240.188 307.163 240.525 306.959 240.792L301.821 247.491C301.702 247.645 301.549 247.77 301.375 247.856C301.2 247.942 301.007 247.986 300.812 247.986L300.811 247.987Z" fill="white"/>
<path d="M302.015 284.022C308.721 284.022 314.157 278.586 314.157 271.88C314.157 265.174 308.721 259.737 302.015 259.737C295.309 259.737 289.872 265.174 289.872 271.88C289.872 278.586 295.309 284.022 302.015 284.022Z" fill="#22A6AF"/>
<path d="M300.811 276.512C300.538 276.512 300.272 276.424 300.054 276.26L300.04 276.25L297.187 274.067C296.92 273.862 296.746 273.56 296.702 273.227C296.658 272.893 296.748 272.556 296.953 272.29C297.157 272.023 297.459 271.848 297.793 271.804C298.126 271.76 298.463 271.85 298.73 272.054L300.578 273.471L304.946 267.773C305.047 267.641 305.173 267.53 305.318 267.447C305.462 267.364 305.621 267.309 305.786 267.288C305.951 267.266 306.119 267.277 306.279 267.32C306.44 267.363 306.591 267.437 306.723 267.538L306.696 267.576L306.724 267.539C306.991 267.743 307.165 268.046 307.209 268.379C307.253 268.712 307.163 269.049 306.959 269.316L301.821 276.016C301.702 276.17 301.55 276.295 301.375 276.381C301.2 276.466 301.007 276.511 300.813 276.51L300.811 276.512Z" fill="white"/>
<path d="M225.574 90.6141C212.764 90.3957 206.943 80.6769 206.944 71.7393C206.945 62.8017 212.766 53.0842 225.547 52.8677H225.575C238.357 53.0858 244.178 62.8045 244.178 71.7421C244.177 80.6797 238.355 90.3977 225.574 90.6141ZM225.561 54.4944C213.888 54.6986 208.571 63.5753 208.571 71.7393C208.57 79.9069 213.891 88.788 225.574 88.9874C237.229 88.7896 242.55 79.9092 242.551 71.7421C242.551 63.5781 237.234 54.7013 225.561 54.4944Z" fill="#22A6AF"/>
<path d="M228.808 75.76C229.075 75.76 229.285 75.8347 229.44 75.984C229.595 76.128 229.672 76.32 229.672 76.56V78H221.48V77.2C221.48 77.0453 221.512 76.88 221.576 76.704C221.64 76.528 221.752 76.368 221.912 76.224L225.272 72.84C225.56 72.552 225.811 72.2773 226.024 72.016C226.237 71.7547 226.413 71.4987 226.552 71.248C226.691 70.992 226.795 70.7387 226.864 70.488C226.933 70.232 226.968 69.9627 226.968 69.68C226.968 69.216 226.856 68.8613 226.632 68.616C226.413 68.3653 226.077 68.24 225.624 68.24C225.256 68.24 224.944 68.3387 224.688 68.536C224.437 68.728 224.264 68.968 224.168 69.256C224.056 69.5493 223.909 69.744 223.728 69.84C223.547 69.936 223.288 69.9573 222.952 69.904L221.64 69.672C221.725 69.0907 221.888 68.584 222.128 68.152C222.373 67.72 222.675 67.36 223.032 67.072C223.395 66.784 223.808 66.5707 224.272 66.432C224.736 66.288 225.235 66.216 225.768 66.216C226.344 66.216 226.861 66.3013 227.32 66.472C227.784 66.6373 228.179 66.8693 228.504 67.168C228.829 67.4667 229.077 67.824 229.248 68.24C229.424 68.6507 229.512 69.104 229.512 69.6C229.512 70.0267 229.451 70.4213 229.328 70.784C229.211 71.1467 229.048 71.4933 228.84 71.824C228.632 72.1493 228.389 72.4667 228.112 72.776C227.84 73.08 227.549 73.3893 227.24 73.704L224.96 76.04C225.253 75.9493 225.544 75.88 225.832 75.832C226.12 75.784 226.387 75.76 226.632 75.76H228.808Z" fill="#22A6AF"/>
<path d="M340.241 37.7471C336.509 37.7471 332.86 36.6402 329.756 34.5663C326.652 32.4925 324.233 29.5449 322.805 26.0963C321.377 22.6476 321.003 18.8529 321.731 15.1919C322.459 11.5308 324.257 8.16798 326.896 5.52854C329.536 2.8891 332.899 1.09161 336.56 0.363401C340.221 -0.364809 344.015 0.0089508 347.464 1.43742C350.913 2.86589 353.86 5.28492 355.934 8.3886C358.008 11.4923 359.115 15.1412 359.115 18.874C359.109 23.8777 357.119 28.6749 353.581 32.2131C350.042 35.7513 345.245 37.7415 340.241 37.7471ZM340.241 1.62745C336.83 1.62749 333.496 2.63901 330.66 4.5341C327.824 6.4292 325.613 9.12274 324.308 12.2741C323.003 15.4255 322.661 18.8932 323.327 22.2387C323.992 25.5842 325.635 28.6572 328.047 31.0691C330.459 33.4811 333.532 35.1236 336.877 35.7891C340.223 36.4545 343.69 36.113 346.842 34.8076C349.993 33.5023 352.686 31.2917 354.582 28.4556C356.477 25.6194 357.488 22.285 357.488 18.874C357.483 14.3014 355.664 9.9177 352.431 6.68447C349.198 3.45124 344.814 1.63257 340.241 1.62745Z" fill="#CCCCCC"/>
<path d="M340 13.304C340.533 13.304 341.013 13.3813 341.44 13.536C341.872 13.6853 342.24 13.896 342.544 14.168C342.848 14.4347 343.08 14.7493 343.24 15.112C343.405 15.4747 343.488 15.8667 343.488 16.288C343.488 16.656 343.445 16.9813 343.36 17.264C343.28 17.5413 343.16 17.784 343 17.992C342.845 18.2 342.653 18.376 342.424 18.52C342.2 18.664 341.944 18.784 341.656 18.88C342.349 19.0987 342.867 19.432 343.208 19.88C343.549 20.328 343.72 20.8907 343.72 21.568C343.72 22.144 343.613 22.6533 343.4 23.096C343.187 23.5387 342.899 23.912 342.536 24.216C342.173 24.5147 341.752 24.7413 341.272 24.896C340.797 25.0507 340.293 25.128 339.76 25.128C339.179 25.128 338.672 25.0613 338.24 24.928C337.808 24.7947 337.432 24.5973 337.112 24.336C336.792 24.0747 336.52 23.7547 336.296 23.376C336.072 22.9973 335.88 22.56 335.72 22.064L336.592 21.704C336.741 21.64 336.893 21.608 337.048 21.608C337.187 21.608 337.309 21.6373 337.416 21.696C337.528 21.7547 337.613 21.84 337.672 21.952C337.768 22.1387 337.872 22.3227 337.984 22.504C338.101 22.6853 338.24 22.848 338.4 22.992C338.56 23.1307 338.747 23.2453 338.96 23.336C339.179 23.4213 339.437 23.464 339.736 23.464C340.072 23.464 340.365 23.4107 340.616 23.304C340.867 23.192 341.075 23.048 341.24 22.872C341.411 22.696 341.536 22.5013 341.616 22.288C341.701 22.0693 341.744 21.8507 341.744 21.632C341.744 21.3547 341.715 21.104 341.656 20.88C341.597 20.6507 341.475 20.456 341.288 20.296C341.101 20.136 340.832 20.0107 340.48 19.92C340.133 19.8293 339.667 19.784 339.08 19.784V18.376C339.565 18.3707 339.968 18.3253 340.288 18.24C340.608 18.1547 340.861 18.0373 341.048 17.888C341.24 17.7333 341.373 17.5493 341.448 17.336C341.523 17.1227 341.56 16.888 341.56 16.632C341.56 16.0827 341.411 15.6693 341.112 15.392C340.813 15.1093 340.405 14.968 339.888 14.968C339.419 14.968 339.029 15.0933 338.72 15.344C338.411 15.5893 338.195 15.9067 338.072 16.296C338.008 16.4987 337.92 16.6453 337.808 16.736C337.696 16.8213 337.549 16.864 337.368 16.864C337.283 16.864 337.192 16.856 337.096 16.84L336.056 16.656C336.136 16.1013 336.291 15.616 336.52 15.2C336.749 14.7787 337.035 14.4293 337.376 14.152C337.723 13.8693 338.117 13.6587 338.56 13.52C339.008 13.376 339.488 13.304 340 13.304Z" fill="white"/>
</svg>
